<mxfile host="app.diagrams.net" agent="Mozilla/5.0 (Windows NT 10.0; Win64; x64) AppleWebKit/537.36 (KHTML, like Gecko) Chrome/130.0.0.0 Safari/537.36 Edg/130.0.0.0" version="24.8.6">
  <diagram name="Page-1" id="I0UtlrND1rXlGO0zBDxc">
    <mxGraphModel dx="1678" dy="879" grid="1" gridSize="10" guides="1" tooltips="1" connect="1" arrows="1" fold="1" page="1" pageScale="1" pageWidth="827" pageHeight="1169" math="0" shadow="0">
      <root>
        <mxCell id="0" />
        <mxCell id="1" parent="0" />
        <mxCell id="vO-cMuVsGAkO7_aJOG2B-15" style="edgeStyle=orthogonalEdgeStyle;rounded=0;orthogonalLoop=1;jettySize=auto;html=1;exitX=1;exitY=0.5;exitDx=0;exitDy=0;entryX=0;entryY=0.5;entryDx=0;entryDy=0;endArrow=none;endFill=0;" edge="1" parent="1" source="NJ3f6omEOCtdMGy07Fsw-1" target="NJ3f6omEOCtdMGy07Fsw-12">
          <mxGeometry relative="1" as="geometry" />
        </mxCell>
        <mxCell id="vO-cMuVsGAkO7_aJOG2B-73" style="edgeStyle=orthogonalEdgeStyle;rounded=0;orthogonalLoop=1;jettySize=auto;html=1;exitX=1;exitY=0.5;exitDx=0;exitDy=0;entryX=0;entryY=0.5;entryDx=0;entryDy=0;endArrow=none;endFill=0;" edge="1" parent="1" source="NJ3f6omEOCtdMGy07Fsw-1" target="vO-cMuVsGAkO7_aJOG2B-2">
          <mxGeometry relative="1" as="geometry" />
        </mxCell>
        <mxCell id="NJ3f6omEOCtdMGy07Fsw-1" value="User" style="rounded=0;whiteSpace=wrap;html=1;fillColor=#dae8fc;strokeColor=#6c8ebf;" parent="1" vertex="1">
          <mxGeometry x="110" y="180" width="80" height="40" as="geometry" />
        </mxCell>
        <mxCell id="NJ3f6omEOCtdMGy07Fsw-25" style="edgeStyle=orthogonalEdgeStyle;rounded=0;orthogonalLoop=1;jettySize=auto;html=1;exitX=1;exitY=0.5;exitDx=0;exitDy=0;entryX=0;entryY=0.5;entryDx=0;entryDy=0;endArrow=none;endFill=0;" parent="1" source="NJ3f6omEOCtdMGy07Fsw-2" target="NJ3f6omEOCtdMGy07Fsw-1" edge="1">
          <mxGeometry relative="1" as="geometry" />
        </mxCell>
        <mxCell id="NJ3f6omEOCtdMGy07Fsw-2" value="&lt;u&gt;ID&lt;/u&gt;" style="ellipse;whiteSpace=wrap;html=1;fillColor=#e1d5e7;strokeColor=#9673a6;" parent="1" vertex="1">
          <mxGeometry width="60" height="40" as="geometry" />
        </mxCell>
        <mxCell id="NJ3f6omEOCtdMGy07Fsw-14" style="edgeStyle=orthogonalEdgeStyle;rounded=0;orthogonalLoop=1;jettySize=auto;html=1;entryX=0;entryY=0.5;entryDx=0;entryDy=0;endArrow=none;endFill=0;" parent="1" source="NJ3f6omEOCtdMGy07Fsw-3" target="NJ3f6omEOCtdMGy07Fsw-1" edge="1">
          <mxGeometry relative="1" as="geometry" />
        </mxCell>
        <mxCell id="NJ3f6omEOCtdMGy07Fsw-3" value="First&amp;nbsp;&lt;div&gt;name&lt;/div&gt;" style="ellipse;whiteSpace=wrap;html=1;fillColor=#e1d5e7;strokeColor=#9673a6;" parent="1" vertex="1">
          <mxGeometry y="40" width="60" height="40" as="geometry" />
        </mxCell>
        <mxCell id="NJ3f6omEOCtdMGy07Fsw-15" style="edgeStyle=orthogonalEdgeStyle;rounded=0;orthogonalLoop=1;jettySize=auto;html=1;exitX=1;exitY=0.5;exitDx=0;exitDy=0;entryX=0;entryY=0.5;entryDx=0;entryDy=0;endArrow=none;endFill=0;" parent="1" source="NJ3f6omEOCtdMGy07Fsw-4" target="NJ3f6omEOCtdMGy07Fsw-1" edge="1">
          <mxGeometry relative="1" as="geometry" />
        </mxCell>
        <mxCell id="NJ3f6omEOCtdMGy07Fsw-4" value="Last&amp;nbsp;&lt;div&gt;name&lt;/div&gt;" style="ellipse;whiteSpace=wrap;html=1;fillColor=#e1d5e7;strokeColor=#9673a6;" parent="1" vertex="1">
          <mxGeometry y="80" width="60" height="40" as="geometry" />
        </mxCell>
        <mxCell id="NJ3f6omEOCtdMGy07Fsw-16" style="edgeStyle=orthogonalEdgeStyle;rounded=0;orthogonalLoop=1;jettySize=auto;html=1;exitX=1;exitY=0.5;exitDx=0;exitDy=0;entryX=0;entryY=0.5;entryDx=0;entryDy=0;endArrow=none;endFill=0;" parent="1" source="NJ3f6omEOCtdMGy07Fsw-5" target="NJ3f6omEOCtdMGy07Fsw-1" edge="1">
          <mxGeometry relative="1" as="geometry">
            <mxPoint x="100" y="190" as="targetPoint" />
          </mxGeometry>
        </mxCell>
        <mxCell id="NJ3f6omEOCtdMGy07Fsw-5" value="Email" style="ellipse;whiteSpace=wrap;html=1;fillColor=#e1d5e7;strokeColor=#9673a6;" parent="1" vertex="1">
          <mxGeometry y="120" width="60" height="40" as="geometry" />
        </mxCell>
        <mxCell id="NJ3f6omEOCtdMGy07Fsw-26" style="edgeStyle=orthogonalEdgeStyle;rounded=0;orthogonalLoop=1;jettySize=auto;html=1;exitX=1;exitY=0.5;exitDx=0;exitDy=0;entryX=0;entryY=0.5;entryDx=0;entryDy=0;endArrow=none;endFill=0;" parent="1" source="NJ3f6omEOCtdMGy07Fsw-6" target="NJ3f6omEOCtdMGy07Fsw-1" edge="1">
          <mxGeometry relative="1" as="geometry" />
        </mxCell>
        <mxCell id="NJ3f6omEOCtdMGy07Fsw-6" value="Password" style="ellipse;whiteSpace=wrap;html=1;fillColor=#e1d5e7;strokeColor=#9673a6;" parent="1" vertex="1">
          <mxGeometry y="160" width="60" height="40" as="geometry" />
        </mxCell>
        <mxCell id="NJ3f6omEOCtdMGy07Fsw-22" style="edgeStyle=orthogonalEdgeStyle;rounded=0;orthogonalLoop=1;jettySize=auto;html=1;exitX=1;exitY=0.5;exitDx=0;exitDy=0;entryX=0;entryY=0.5;entryDx=0;entryDy=0;endArrow=none;endFill=0;" parent="1" source="NJ3f6omEOCtdMGy07Fsw-7" target="NJ3f6omEOCtdMGy07Fsw-1" edge="1">
          <mxGeometry relative="1" as="geometry" />
        </mxCell>
        <mxCell id="NJ3f6omEOCtdMGy07Fsw-7" value="Loyalty" style="ellipse;whiteSpace=wrap;html=1;fillColor=#e1d5e7;strokeColor=#9673a6;" parent="1" vertex="1">
          <mxGeometry y="240" width="60" height="40" as="geometry" />
        </mxCell>
        <mxCell id="NJ3f6omEOCtdMGy07Fsw-21" style="edgeStyle=orthogonalEdgeStyle;rounded=0;orthogonalLoop=1;jettySize=auto;html=1;exitX=1;exitY=0.5;exitDx=0;exitDy=0;entryX=0;entryY=0.5;entryDx=0;entryDy=0;endArrow=none;endFill=0;" parent="1" source="NJ3f6omEOCtdMGy07Fsw-8" target="NJ3f6omEOCtdMGy07Fsw-1" edge="1">
          <mxGeometry relative="1" as="geometry">
            <mxPoint x="440" y="260" as="targetPoint" />
          </mxGeometry>
        </mxCell>
        <mxCell id="NJ3f6omEOCtdMGy07Fsw-8" value="Birthdate" style="ellipse;whiteSpace=wrap;html=1;fillColor=#e1d5e7;strokeColor=#9673a6;" parent="1" vertex="1">
          <mxGeometry y="200" width="60" height="40" as="geometry" />
        </mxCell>
        <mxCell id="NJ3f6omEOCtdMGy07Fsw-23" style="edgeStyle=orthogonalEdgeStyle;rounded=0;orthogonalLoop=1;jettySize=auto;html=1;exitX=1;exitY=0.5;exitDx=0;exitDy=0;entryX=0;entryY=0.5;entryDx=0;entryDy=0;endArrow=none;endFill=0;" parent="1" source="NJ3f6omEOCtdMGy07Fsw-9" target="NJ3f6omEOCtdMGy07Fsw-1" edge="1">
          <mxGeometry relative="1" as="geometry" />
        </mxCell>
        <mxCell id="NJ3f6omEOCtdMGy07Fsw-9" value="Creation" style="ellipse;whiteSpace=wrap;html=1;fillColor=#e1d5e7;strokeColor=#9673a6;" parent="1" vertex="1">
          <mxGeometry y="280" width="60" height="40" as="geometry" />
        </mxCell>
        <mxCell id="NJ3f6omEOCtdMGy07Fsw-27" style="edgeStyle=orthogonalEdgeStyle;rounded=0;orthogonalLoop=1;jettySize=auto;html=1;exitX=1;exitY=0.5;exitDx=0;exitDy=0;entryX=0;entryY=0.5;entryDx=0;entryDy=0;endArrow=none;endFill=0;" parent="1" source="NJ3f6omEOCtdMGy07Fsw-10" target="NJ3f6omEOCtdMGy07Fsw-1" edge="1">
          <mxGeometry relative="1" as="geometry" />
        </mxCell>
        <mxCell id="NJ3f6omEOCtdMGy07Fsw-10" value="Last login" style="ellipse;whiteSpace=wrap;html=1;fillColor=#e1d5e7;strokeColor=#9673a6;" parent="1" vertex="1">
          <mxGeometry y="320" width="60" height="40" as="geometry" />
        </mxCell>
        <mxCell id="NJ3f6omEOCtdMGy07Fsw-28" style="edgeStyle=orthogonalEdgeStyle;rounded=0;orthogonalLoop=1;jettySize=auto;html=1;exitX=1;exitY=0.5;exitDx=0;exitDy=0;entryX=0;entryY=0.5;entryDx=0;entryDy=0;endArrow=none;endFill=0;" parent="1" source="NJ3f6omEOCtdMGy07Fsw-11" target="NJ3f6omEOCtdMGy07Fsw-1" edge="1">
          <mxGeometry relative="1" as="geometry">
            <mxPoint x="120" y="350" as="targetPoint" />
          </mxGeometry>
        </mxCell>
        <mxCell id="NJ3f6omEOCtdMGy07Fsw-11" value="Is admin?" style="ellipse;whiteSpace=wrap;html=1;fillColor=#e1d5e7;strokeColor=#9673a6;" parent="1" vertex="1">
          <mxGeometry y="360" width="60" height="40" as="geometry" />
        </mxCell>
        <mxCell id="vO-cMuVsGAkO7_aJOG2B-16" style="edgeStyle=orthogonalEdgeStyle;rounded=0;orthogonalLoop=1;jettySize=auto;html=1;exitX=1;exitY=0.5;exitDx=0;exitDy=0;entryX=0;entryY=0.5;entryDx=0;entryDy=0;endArrow=none;endFill=0;" edge="1" parent="1" source="NJ3f6omEOCtdMGy07Fsw-12" target="vO-cMuVsGAkO7_aJOG2B-14">
          <mxGeometry relative="1" as="geometry" />
        </mxCell>
        <mxCell id="NJ3f6omEOCtdMGy07Fsw-12" value="has preferences" style="rhombus;whiteSpace=wrap;html=1;fillColor=#ffe6cc;strokeColor=#d79b00;" parent="1" vertex="1">
          <mxGeometry x="230" y="60" width="80" height="40" as="geometry" />
        </mxCell>
        <mxCell id="vO-cMuVsGAkO7_aJOG2B-47" style="edgeStyle=orthogonalEdgeStyle;rounded=0;orthogonalLoop=1;jettySize=auto;html=1;exitX=0;exitY=0.5;exitDx=0;exitDy=0;entryX=1;entryY=0.5;entryDx=0;entryDy=0;endArrow=none;endFill=0;" edge="1" parent="1" source="vO-cMuVsGAkO7_aJOG2B-1" target="NJ3f6omEOCtdMGy07Fsw-1">
          <mxGeometry relative="1" as="geometry" />
        </mxCell>
        <mxCell id="vO-cMuVsGAkO7_aJOG2B-1" value="gives" style="rhombus;whiteSpace=wrap;html=1;fillColor=#ffe6cc;strokeColor=#d79b00;" vertex="1" parent="1">
          <mxGeometry x="230" y="180" width="80" height="40" as="geometry" />
        </mxCell>
        <mxCell id="vO-cMuVsGAkO7_aJOG2B-74" style="edgeStyle=orthogonalEdgeStyle;rounded=0;orthogonalLoop=1;jettySize=auto;html=1;exitX=0.5;exitY=1;exitDx=0;exitDy=0;entryX=0.5;entryY=0;entryDx=0;entryDy=0;endArrow=none;endFill=0;" edge="1" parent="1" source="vO-cMuVsGAkO7_aJOG2B-2" target="vO-cMuVsGAkO7_aJOG2B-58">
          <mxGeometry relative="1" as="geometry" />
        </mxCell>
        <mxCell id="vO-cMuVsGAkO7_aJOG2B-2" value="books" style="rhombus;whiteSpace=wrap;html=1;fillColor=#ffe6cc;strokeColor=#d79b00;" vertex="1" parent="1">
          <mxGeometry x="230" y="290" width="80" height="40" as="geometry" />
        </mxCell>
        <mxCell id="vO-cMuVsGAkO7_aJOG2B-34" style="edgeStyle=orthogonalEdgeStyle;rounded=0;orthogonalLoop=1;jettySize=auto;html=1;exitX=0;exitY=0.5;exitDx=0;exitDy=0;endArrow=none;endFill=0;" edge="1" parent="1" source="vO-cMuVsGAkO7_aJOG2B-3" target="vO-cMuVsGAkO7_aJOG2B-31">
          <mxGeometry relative="1" as="geometry" />
        </mxCell>
        <mxCell id="vO-cMuVsGAkO7_aJOG2B-50" style="edgeStyle=orthogonalEdgeStyle;rounded=0;orthogonalLoop=1;jettySize=auto;html=1;exitX=0.5;exitY=1;exitDx=0;exitDy=0;entryX=0.5;entryY=0;entryDx=0;entryDy=0;endArrow=none;endFill=0;" edge="1" parent="1" source="vO-cMuVsGAkO7_aJOG2B-3" target="vO-cMuVsGAkO7_aJOG2B-49">
          <mxGeometry relative="1" as="geometry">
            <Array as="points">
              <mxPoint x="610" y="310" />
              <mxPoint x="560" y="310" />
            </Array>
          </mxGeometry>
        </mxCell>
        <mxCell id="vO-cMuVsGAkO7_aJOG2B-194" style="edgeStyle=orthogonalEdgeStyle;rounded=0;orthogonalLoop=1;jettySize=auto;html=1;exitX=1;exitY=0.5;exitDx=0;exitDy=0;entryX=0;entryY=0.5;entryDx=0;entryDy=0;endArrow=none;endFill=0;" edge="1" parent="1" source="vO-cMuVsGAkO7_aJOG2B-3" target="vO-cMuVsGAkO7_aJOG2B-4">
          <mxGeometry relative="1" as="geometry">
            <Array as="points">
              <mxPoint x="660" y="120" />
              <mxPoint x="660" y="28" />
            </Array>
          </mxGeometry>
        </mxCell>
        <mxCell id="vO-cMuVsGAkO7_aJOG2B-195" style="edgeStyle=orthogonalEdgeStyle;rounded=0;orthogonalLoop=1;jettySize=auto;html=1;exitX=1;exitY=0.5;exitDx=0;exitDy=0;entryX=0;entryY=0.5;entryDx=0;entryDy=0;endArrow=none;endFill=0;" edge="1" parent="1" source="vO-cMuVsGAkO7_aJOG2B-3" target="vO-cMuVsGAkO7_aJOG2B-9">
          <mxGeometry relative="1" as="geometry">
            <Array as="points">
              <mxPoint x="660" y="120" />
              <mxPoint x="660" y="228" />
            </Array>
          </mxGeometry>
        </mxCell>
        <mxCell id="vO-cMuVsGAkO7_aJOG2B-196" style="edgeStyle=orthogonalEdgeStyle;rounded=0;orthogonalLoop=1;jettySize=auto;html=1;exitX=1;exitY=0.5;exitDx=0;exitDy=0;entryX=0;entryY=0.5;entryDx=0;entryDy=0;endArrow=none;endFill=0;" edge="1" parent="1" source="vO-cMuVsGAkO7_aJOG2B-3" target="vO-cMuVsGAkO7_aJOG2B-8">
          <mxGeometry relative="1" as="geometry">
            <Array as="points">
              <mxPoint x="660" y="120" />
              <mxPoint x="660" y="188" />
            </Array>
          </mxGeometry>
        </mxCell>
        <mxCell id="vO-cMuVsGAkO7_aJOG2B-203" style="edgeStyle=orthogonalEdgeStyle;rounded=0;orthogonalLoop=1;jettySize=auto;html=1;exitX=1;exitY=0.5;exitDx=0;exitDy=0;entryX=0;entryY=0.5;entryDx=0;entryDy=0;endArrow=none;endFill=0;" edge="1" parent="1" source="vO-cMuVsGAkO7_aJOG2B-3" target="vO-cMuVsGAkO7_aJOG2B-6">
          <mxGeometry relative="1" as="geometry">
            <Array as="points">
              <mxPoint x="660" y="120" />
              <mxPoint x="660" y="108" />
            </Array>
          </mxGeometry>
        </mxCell>
        <mxCell id="vO-cMuVsGAkO7_aJOG2B-3" value="Transportation" style="rounded=0;whiteSpace=wrap;html=1;fillColor=#dae8fc;strokeColor=#6c8ebf;" vertex="1" parent="1">
          <mxGeometry x="570" y="100" width="80" height="40" as="geometry" />
        </mxCell>
        <mxCell id="vO-cMuVsGAkO7_aJOG2B-4" value="&lt;u&gt;ID&lt;/u&gt;" style="ellipse;whiteSpace=wrap;html=1;fillColor=#e1d5e7;strokeColor=#9673a6;" vertex="1" parent="1">
          <mxGeometry x="680" y="8" width="60" height="40" as="geometry" />
        </mxCell>
        <mxCell id="vO-cMuVsGAkO7_aJOG2B-199" style="edgeStyle=orthogonalEdgeStyle;rounded=0;orthogonalLoop=1;jettySize=auto;html=1;exitX=0;exitY=0.5;exitDx=0;exitDy=0;entryX=1;entryY=0.5;entryDx=0;entryDy=0;endArrow=none;endFill=0;" edge="1" parent="1" source="vO-cMuVsGAkO7_aJOG2B-5" target="vO-cMuVsGAkO7_aJOG2B-3">
          <mxGeometry relative="1" as="geometry">
            <Array as="points">
              <mxPoint x="660" y="68" />
              <mxPoint x="660" y="120" />
            </Array>
          </mxGeometry>
        </mxCell>
        <mxCell id="vO-cMuVsGAkO7_aJOG2B-5" value="Departure Date" style="ellipse;whiteSpace=wrap;html=1;fillColor=#e1d5e7;strokeColor=#9673a6;" vertex="1" parent="1">
          <mxGeometry x="680" y="48" width="60" height="40" as="geometry" />
        </mxCell>
        <mxCell id="vO-cMuVsGAkO7_aJOG2B-6" value="Arrival Date" style="ellipse;whiteSpace=wrap;html=1;fillColor=#e1d5e7;strokeColor=#9673a6;" vertex="1" parent="1">
          <mxGeometry x="680" y="88" width="60" height="40" as="geometry" />
        </mxCell>
        <mxCell id="vO-cMuVsGAkO7_aJOG2B-197" style="edgeStyle=orthogonalEdgeStyle;rounded=0;orthogonalLoop=1;jettySize=auto;html=1;exitX=0;exitY=0.5;exitDx=0;exitDy=0;entryX=1;entryY=0.5;entryDx=0;entryDy=0;endArrow=none;endFill=0;" edge="1" parent="1" source="vO-cMuVsGAkO7_aJOG2B-7" target="vO-cMuVsGAkO7_aJOG2B-3">
          <mxGeometry relative="1" as="geometry" />
        </mxCell>
        <mxCell id="vO-cMuVsGAkO7_aJOG2B-7" value="Ticket number" style="ellipse;whiteSpace=wrap;html=1;fillColor=#e1d5e7;strokeColor=#9673a6;" vertex="1" parent="1">
          <mxGeometry x="680" y="128" width="60" height="40" as="geometry" />
        </mxCell>
        <mxCell id="vO-cMuVsGAkO7_aJOG2B-8" value="Ticket price" style="ellipse;whiteSpace=wrap;html=1;fillColor=#e1d5e7;strokeColor=#9673a6;" vertex="1" parent="1">
          <mxGeometry x="680" y="168" width="60" height="40" as="geometry" />
        </mxCell>
        <mxCell id="vO-cMuVsGAkO7_aJOG2B-9" value="Seat number" style="ellipse;whiteSpace=wrap;html=1;fillColor=#e1d5e7;strokeColor=#9673a6;" vertex="1" parent="1">
          <mxGeometry x="680" y="208" width="60" height="40" as="geometry" />
        </mxCell>
        <mxCell id="vO-cMuVsGAkO7_aJOG2B-200" style="edgeStyle=orthogonalEdgeStyle;rounded=0;orthogonalLoop=1;jettySize=auto;html=1;exitX=1;exitY=0.5;exitDx=0;exitDy=0;entryX=1;entryY=0.5;entryDx=0;entryDy=0;endArrow=none;endFill=0;" edge="1" parent="1" source="vO-cMuVsGAkO7_aJOG2B-10" target="vO-cMuVsGAkO7_aJOG2B-3">
          <mxGeometry relative="1" as="geometry">
            <Array as="points">
              <mxPoint x="830" y="68" />
              <mxPoint x="830" />
              <mxPoint x="660" />
              <mxPoint x="660" y="120" />
            </Array>
          </mxGeometry>
        </mxCell>
        <mxCell id="vO-cMuVsGAkO7_aJOG2B-10" value="Departure Address" style="ellipse;whiteSpace=wrap;html=1;fillColor=#d5e8d4;strokeColor=#82b366;" vertex="1" parent="1">
          <mxGeometry x="750" y="48" width="60" height="40" as="geometry" />
        </mxCell>
        <mxCell id="vO-cMuVsGAkO7_aJOG2B-201" style="edgeStyle=orthogonalEdgeStyle;rounded=0;orthogonalLoop=1;jettySize=auto;html=1;exitX=1;exitY=0.5;exitDx=0;exitDy=0;entryX=1;entryY=0.5;entryDx=0;entryDy=0;endArrow=none;endFill=0;" edge="1" parent="1" source="vO-cMuVsGAkO7_aJOG2B-11" target="vO-cMuVsGAkO7_aJOG2B-3">
          <mxGeometry relative="1" as="geometry">
            <Array as="points">
              <mxPoint x="830" y="108" />
              <mxPoint x="830" />
              <mxPoint x="660" />
              <mxPoint x="660" y="120" />
            </Array>
          </mxGeometry>
        </mxCell>
        <mxCell id="vO-cMuVsGAkO7_aJOG2B-11" value="Arrival Address" style="ellipse;whiteSpace=wrap;html=1;fillColor=#d5e8d4;strokeColor=#82b366;" vertex="1" parent="1">
          <mxGeometry x="750" y="88" width="60" height="40" as="geometry" />
        </mxCell>
        <mxCell id="vO-cMuVsGAkO7_aJOG2B-19" style="edgeStyle=orthogonalEdgeStyle;rounded=0;orthogonalLoop=1;jettySize=auto;html=1;exitX=0.5;exitY=0;exitDx=0;exitDy=0;entryX=1;entryY=0.5;entryDx=0;entryDy=0;endArrow=none;endFill=0;" edge="1" parent="1" source="vO-cMuVsGAkO7_aJOG2B-14" target="vO-cMuVsGAkO7_aJOG2B-17">
          <mxGeometry relative="1" as="geometry">
            <Array as="points">
              <mxPoint x="390" y="20" />
            </Array>
          </mxGeometry>
        </mxCell>
        <mxCell id="vO-cMuVsGAkO7_aJOG2B-14" value="Transportation&lt;div&gt;Type&lt;/div&gt;" style="rounded=0;whiteSpace=wrap;html=1;fillColor=#dae8fc;strokeColor=#6c8ebf;" vertex="1" parent="1">
          <mxGeometry x="350" y="60" width="80" height="40" as="geometry" />
        </mxCell>
        <mxCell id="vO-cMuVsGAkO7_aJOG2B-17" value="&lt;u&gt;ID&lt;/u&gt;" style="ellipse;whiteSpace=wrap;html=1;fillColor=#e1d5e7;strokeColor=#9673a6;" vertex="1" parent="1">
          <mxGeometry x="320" width="60" height="40" as="geometry" />
        </mxCell>
        <mxCell id="vO-cMuVsGAkO7_aJOG2B-21" style="edgeStyle=orthogonalEdgeStyle;rounded=0;orthogonalLoop=1;jettySize=auto;html=1;exitX=0;exitY=0.5;exitDx=0;exitDy=0;entryX=1;entryY=0.5;entryDx=0;entryDy=0;endArrow=none;endFill=0;" edge="1" parent="1" source="vO-cMuVsGAkO7_aJOG2B-18" target="vO-cMuVsGAkO7_aJOG2B-17">
          <mxGeometry relative="1" as="geometry" />
        </mxCell>
        <mxCell id="vO-cMuVsGAkO7_aJOG2B-18" value="Name" style="ellipse;whiteSpace=wrap;html=1;fillColor=#e1d5e7;strokeColor=#9673a6;" vertex="1" parent="1">
          <mxGeometry x="400" width="60" height="40" as="geometry" />
        </mxCell>
        <mxCell id="vO-cMuVsGAkO7_aJOG2B-33" style="edgeStyle=orthogonalEdgeStyle;rounded=0;orthogonalLoop=1;jettySize=auto;html=1;exitX=0;exitY=0.5;exitDx=0;exitDy=0;entryX=1;entryY=0.5;entryDx=0;entryDy=0;endArrow=none;endFill=0;" edge="1" parent="1" source="vO-cMuVsGAkO7_aJOG2B-31" target="vO-cMuVsGAkO7_aJOG2B-14">
          <mxGeometry relative="1" as="geometry">
            <Array as="points">
              <mxPoint x="450" y="120" />
              <mxPoint x="450" y="80" />
            </Array>
          </mxGeometry>
        </mxCell>
        <mxCell id="vO-cMuVsGAkO7_aJOG2B-31" value="has" style="rhombus;whiteSpace=wrap;html=1;fillColor=#ffe6cc;strokeColor=#d79b00;" vertex="1" parent="1">
          <mxGeometry x="470" y="100" width="80" height="40" as="geometry" />
        </mxCell>
        <mxCell id="vO-cMuVsGAkO7_aJOG2B-35" value="Transportation Provider" style="rounded=0;whiteSpace=wrap;html=1;fillColor=#dae8fc;strokeColor=#6c8ebf;" vertex="1" parent="1">
          <mxGeometry x="730" y="280" width="80" height="40" as="geometry" />
        </mxCell>
        <mxCell id="vO-cMuVsGAkO7_aJOG2B-52" style="edgeStyle=orthogonalEdgeStyle;rounded=0;orthogonalLoop=1;jettySize=auto;html=1;exitX=0;exitY=0.5;exitDx=0;exitDy=0;entryX=1;entryY=0.5;entryDx=0;entryDy=0;endArrow=none;endFill=0;" edge="1" parent="1" source="vO-cMuVsGAkO7_aJOG2B-36" target="vO-cMuVsGAkO7_aJOG2B-35">
          <mxGeometry relative="1" as="geometry">
            <Array as="points">
              <mxPoint x="820" y="280" />
              <mxPoint x="820" y="300" />
            </Array>
          </mxGeometry>
        </mxCell>
        <mxCell id="vO-cMuVsGAkO7_aJOG2B-36" value="&lt;u&gt;ID&lt;/u&gt;" style="ellipse;whiteSpace=wrap;html=1;fillColor=#e1d5e7;strokeColor=#9673a6;" vertex="1" parent="1">
          <mxGeometry x="830" y="260" width="60" height="40" as="geometry" />
        </mxCell>
        <mxCell id="vO-cMuVsGAkO7_aJOG2B-53" style="edgeStyle=orthogonalEdgeStyle;rounded=0;orthogonalLoop=1;jettySize=auto;html=1;exitX=0;exitY=0.5;exitDx=0;exitDy=0;entryX=1;entryY=0.5;entryDx=0;entryDy=0;endArrow=none;endFill=0;" edge="1" parent="1" source="vO-cMuVsGAkO7_aJOG2B-37" target="vO-cMuVsGAkO7_aJOG2B-35">
          <mxGeometry relative="1" as="geometry">
            <Array as="points">
              <mxPoint x="820" y="320" />
              <mxPoint x="820" y="300" />
            </Array>
          </mxGeometry>
        </mxCell>
        <mxCell id="vO-cMuVsGAkO7_aJOG2B-37" value="Name" style="ellipse;whiteSpace=wrap;html=1;fillColor=#e1d5e7;strokeColor=#9673a6;" vertex="1" parent="1">
          <mxGeometry x="830" y="300" width="60" height="40" as="geometry" />
        </mxCell>
        <mxCell id="vO-cMuVsGAkO7_aJOG2B-48" style="edgeStyle=orthogonalEdgeStyle;rounded=0;orthogonalLoop=1;jettySize=auto;html=1;exitX=0;exitY=0.5;exitDx=0;exitDy=0;entryX=1;entryY=0.5;entryDx=0;entryDy=0;endArrow=none;endFill=0;" edge="1" parent="1" source="vO-cMuVsGAkO7_aJOG2B-38" target="vO-cMuVsGAkO7_aJOG2B-1">
          <mxGeometry relative="1" as="geometry" />
        </mxCell>
        <mxCell id="vO-cMuVsGAkO7_aJOG2B-38" value="Review" style="rounded=0;whiteSpace=wrap;html=1;fillColor=#dae8fc;strokeColor=#6c8ebf;" vertex="1" parent="1">
          <mxGeometry x="350" y="180" width="80" height="40" as="geometry" />
        </mxCell>
        <mxCell id="vO-cMuVsGAkO7_aJOG2B-43" style="edgeStyle=orthogonalEdgeStyle;rounded=0;orthogonalLoop=1;jettySize=auto;html=1;exitX=0;exitY=0.5;exitDx=0;exitDy=0;entryX=1;entryY=0.5;entryDx=0;entryDy=0;endArrow=none;endFill=0;" edge="1" parent="1" source="vO-cMuVsGAkO7_aJOG2B-39" target="vO-cMuVsGAkO7_aJOG2B-38">
          <mxGeometry relative="1" as="geometry">
            <Array as="points">
              <mxPoint x="440" y="180" />
              <mxPoint x="440" y="200" />
            </Array>
          </mxGeometry>
        </mxCell>
        <mxCell id="vO-cMuVsGAkO7_aJOG2B-39" value="&lt;u&gt;ID&lt;/u&gt;" style="ellipse;whiteSpace=wrap;html=1;fillColor=#e1d5e7;strokeColor=#9673a6;" vertex="1" parent="1">
          <mxGeometry x="450" y="160" width="60" height="40" as="geometry" />
        </mxCell>
        <mxCell id="vO-cMuVsGAkO7_aJOG2B-44" style="edgeStyle=orthogonalEdgeStyle;rounded=0;orthogonalLoop=1;jettySize=auto;html=1;exitX=0;exitY=0.5;exitDx=0;exitDy=0;entryX=1;entryY=0.5;entryDx=0;entryDy=0;endArrow=none;endFill=0;" edge="1" parent="1" source="vO-cMuVsGAkO7_aJOG2B-40" target="vO-cMuVsGAkO7_aJOG2B-38">
          <mxGeometry relative="1" as="geometry">
            <Array as="points">
              <mxPoint x="440" y="220" />
              <mxPoint x="440" y="200" />
            </Array>
          </mxGeometry>
        </mxCell>
        <mxCell id="vO-cMuVsGAkO7_aJOG2B-40" value="Title" style="ellipse;whiteSpace=wrap;html=1;fillColor=#e1d5e7;strokeColor=#9673a6;" vertex="1" parent="1">
          <mxGeometry x="450" y="200" width="60" height="40" as="geometry" />
        </mxCell>
        <mxCell id="vO-cMuVsGAkO7_aJOG2B-45" style="edgeStyle=orthogonalEdgeStyle;rounded=0;orthogonalLoop=1;jettySize=auto;html=1;exitX=0.5;exitY=0;exitDx=0;exitDy=0;entryX=1;entryY=0.5;entryDx=0;entryDy=0;endArrow=none;endFill=0;" edge="1" parent="1" source="vO-cMuVsGAkO7_aJOG2B-41" target="vO-cMuVsGAkO7_aJOG2B-38">
          <mxGeometry relative="1" as="geometry">
            <Array as="points">
              <mxPoint x="540" y="150" />
              <mxPoint x="440" y="150" />
              <mxPoint x="440" y="200" />
            </Array>
          </mxGeometry>
        </mxCell>
        <mxCell id="vO-cMuVsGAkO7_aJOG2B-41" value="Content" style="ellipse;whiteSpace=wrap;html=1;fillColor=#e1d5e7;strokeColor=#9673a6;" vertex="1" parent="1">
          <mxGeometry x="510" y="160" width="60" height="40" as="geometry" />
        </mxCell>
        <mxCell id="vO-cMuVsGAkO7_aJOG2B-46" style="edgeStyle=orthogonalEdgeStyle;rounded=0;orthogonalLoop=1;jettySize=auto;html=1;exitX=0.5;exitY=1;exitDx=0;exitDy=0;entryX=1;entryY=0.5;entryDx=0;entryDy=0;endArrow=none;endFill=0;" edge="1" parent="1" source="vO-cMuVsGAkO7_aJOG2B-42" target="vO-cMuVsGAkO7_aJOG2B-38">
          <mxGeometry relative="1" as="geometry">
            <Array as="points">
              <mxPoint x="540" y="250" />
              <mxPoint x="440" y="250" />
              <mxPoint x="440" y="200" />
            </Array>
          </mxGeometry>
        </mxCell>
        <mxCell id="vO-cMuVsGAkO7_aJOG2B-42" value="Rating" style="ellipse;whiteSpace=wrap;html=1;fillColor=#e1d5e7;strokeColor=#9673a6;" vertex="1" parent="1">
          <mxGeometry x="510" y="200" width="60" height="40" as="geometry" />
        </mxCell>
        <mxCell id="vO-cMuVsGAkO7_aJOG2B-49" value="includes" style="rhombus;whiteSpace=wrap;html=1;fillColor=#ffe6cc;strokeColor=#d79b00;" vertex="1" parent="1">
          <mxGeometry x="520" y="330" width="80" height="40" as="geometry" />
        </mxCell>
        <mxCell id="vO-cMuVsGAkO7_aJOG2B-56" style="edgeStyle=orthogonalEdgeStyle;rounded=0;orthogonalLoop=1;jettySize=auto;html=1;exitX=0.5;exitY=0;exitDx=0;exitDy=0;entryX=0.5;entryY=1;entryDx=0;entryDy=0;endArrow=none;endFill=0;" edge="1" parent="1" source="vO-cMuVsGAkO7_aJOG2B-54" target="vO-cMuVsGAkO7_aJOG2B-3">
          <mxGeometry relative="1" as="geometry">
            <Array as="points">
              <mxPoint x="660" y="250" />
              <mxPoint x="610" y="250" />
            </Array>
          </mxGeometry>
        </mxCell>
        <mxCell id="vO-cMuVsGAkO7_aJOG2B-57" style="edgeStyle=orthogonalEdgeStyle;rounded=0;orthogonalLoop=1;jettySize=auto;html=1;exitX=1;exitY=0.5;exitDx=0;exitDy=0;entryX=0;entryY=0.5;entryDx=0;entryDy=0;endArrow=none;endFill=0;" edge="1" parent="1" source="vO-cMuVsGAkO7_aJOG2B-54" target="vO-cMuVsGAkO7_aJOG2B-35">
          <mxGeometry relative="1" as="geometry" />
        </mxCell>
        <mxCell id="vO-cMuVsGAkO7_aJOG2B-54" value="provided by" style="rhombus;whiteSpace=wrap;html=1;fillColor=#ffe6cc;strokeColor=#d79b00;" vertex="1" parent="1">
          <mxGeometry x="620" y="280" width="80" height="40" as="geometry" />
        </mxCell>
        <mxCell id="vO-cMuVsGAkO7_aJOG2B-82" style="edgeStyle=orthogonalEdgeStyle;rounded=0;orthogonalLoop=1;jettySize=auto;html=1;exitX=0.5;exitY=1;exitDx=0;exitDy=0;entryX=0.5;entryY=0;entryDx=0;entryDy=0;endArrow=none;endFill=0;" edge="1" parent="1" source="vO-cMuVsGAkO7_aJOG2B-58" target="vO-cMuVsGAkO7_aJOG2B-81">
          <mxGeometry relative="1" as="geometry" />
        </mxCell>
        <mxCell id="vO-cMuVsGAkO7_aJOG2B-147" style="edgeStyle=orthogonalEdgeStyle;rounded=0;orthogonalLoop=1;jettySize=auto;html=1;exitX=1;exitY=0.5;exitDx=0;exitDy=0;entryX=0;entryY=0.5;entryDx=0;entryDy=0;endArrow=none;endFill=0;dashed=1;" edge="1" parent="1" source="vO-cMuVsGAkO7_aJOG2B-58" target="vO-cMuVsGAkO7_aJOG2B-146">
          <mxGeometry relative="1" as="geometry" />
        </mxCell>
        <mxCell id="vO-cMuVsGAkO7_aJOG2B-162" style="edgeStyle=orthogonalEdgeStyle;rounded=0;orthogonalLoop=1;jettySize=auto;html=1;exitX=0.75;exitY=0;exitDx=0;exitDy=0;entryX=0;entryY=0.5;entryDx=0;entryDy=0;endArrow=none;endFill=0;dashed=1;" edge="1" parent="1" source="vO-cMuVsGAkO7_aJOG2B-58" target="vO-cMuVsGAkO7_aJOG2B-158">
          <mxGeometry relative="1" as="geometry" />
        </mxCell>
        <mxCell id="vO-cMuVsGAkO7_aJOG2B-165" style="edgeStyle=orthogonalEdgeStyle;rounded=0;orthogonalLoop=1;jettySize=auto;html=1;exitX=0.75;exitY=1;exitDx=0;exitDy=0;entryX=0;entryY=0.5;entryDx=0;entryDy=0;endArrow=none;endFill=0;dashed=1;" edge="1" parent="1" source="vO-cMuVsGAkO7_aJOG2B-58" target="vO-cMuVsGAkO7_aJOG2B-164">
          <mxGeometry relative="1" as="geometry" />
        </mxCell>
        <mxCell id="vO-cMuVsGAkO7_aJOG2B-58" value="Reservation" style="rounded=0;whiteSpace=wrap;html=1;fillColor=#dae8fc;strokeColor=#6c8ebf;" vertex="1" parent="1">
          <mxGeometry x="230" y="440" width="80" height="40" as="geometry" />
        </mxCell>
        <mxCell id="vO-cMuVsGAkO7_aJOG2B-59" value="Payment" style="rounded=0;whiteSpace=wrap;html=1;fillColor=#dae8fc;strokeColor=#6c8ebf;" vertex="1" parent="1">
          <mxGeometry x="110" y="600" width="80" height="40" as="geometry" />
        </mxCell>
        <mxCell id="vO-cMuVsGAkO7_aJOG2B-89" style="edgeStyle=orthogonalEdgeStyle;rounded=0;orthogonalLoop=1;jettySize=auto;html=1;exitX=0.5;exitY=0;exitDx=0;exitDy=0;entryX=0.5;entryY=1;entryDx=0;entryDy=0;endArrow=none;endFill=0;" edge="1" parent="1" source="vO-cMuVsGAkO7_aJOG2B-60" target="vO-cMuVsGAkO7_aJOG2B-49">
          <mxGeometry relative="1" as="geometry" />
        </mxCell>
        <mxCell id="vO-cMuVsGAkO7_aJOG2B-170" style="edgeStyle=orthogonalEdgeStyle;rounded=0;orthogonalLoop=1;jettySize=auto;html=1;exitX=0.5;exitY=1;exitDx=0;exitDy=0;entryX=0.5;entryY=0;entryDx=0;entryDy=0;endArrow=none;endFill=0;" edge="1" parent="1" source="vO-cMuVsGAkO7_aJOG2B-60" target="vO-cMuVsGAkO7_aJOG2B-168">
          <mxGeometry relative="1" as="geometry" />
        </mxCell>
        <mxCell id="vO-cMuVsGAkO7_aJOG2B-60" value="Package" style="rounded=0;whiteSpace=wrap;html=1;fillColor=#dae8fc;strokeColor=#6c8ebf;" vertex="1" parent="1">
          <mxGeometry x="520" y="440" width="80" height="40" as="geometry" />
        </mxCell>
        <mxCell id="vO-cMuVsGAkO7_aJOG2B-122" style="edgeStyle=orthogonalEdgeStyle;rounded=0;orthogonalLoop=1;jettySize=auto;html=1;exitX=1;exitY=0.5;exitDx=0;exitDy=0;entryX=0;entryY=0.5;entryDx=0;entryDy=0;endArrow=none;endFill=0;" edge="1" parent="1" source="vO-cMuVsGAkO7_aJOG2B-61" target="vO-cMuVsGAkO7_aJOG2B-120">
          <mxGeometry relative="1" as="geometry" />
        </mxCell>
        <mxCell id="vO-cMuVsGAkO7_aJOG2B-179" style="edgeStyle=orthogonalEdgeStyle;rounded=0;orthogonalLoop=1;jettySize=auto;html=1;exitX=0.5;exitY=1;exitDx=0;exitDy=0;entryX=1;entryY=0.5;entryDx=0;entryDy=0;endArrow=none;endFill=0;" edge="1" parent="1" source="vO-cMuVsGAkO7_aJOG2B-61" target="vO-cMuVsGAkO7_aJOG2B-107">
          <mxGeometry relative="1" as="geometry" />
        </mxCell>
        <mxCell id="vO-cMuVsGAkO7_aJOG2B-180" style="edgeStyle=orthogonalEdgeStyle;rounded=0;orthogonalLoop=1;jettySize=auto;html=1;exitX=0.5;exitY=1;exitDx=0;exitDy=0;entryX=1;entryY=0.5;entryDx=0;entryDy=0;endArrow=none;endFill=0;" edge="1" parent="1" source="vO-cMuVsGAkO7_aJOG2B-61" target="vO-cMuVsGAkO7_aJOG2B-109">
          <mxGeometry relative="1" as="geometry" />
        </mxCell>
        <mxCell id="vO-cMuVsGAkO7_aJOG2B-181" style="edgeStyle=orthogonalEdgeStyle;rounded=0;orthogonalLoop=1;jettySize=auto;html=1;exitX=0.5;exitY=1;exitDx=0;exitDy=0;entryX=1;entryY=0.5;entryDx=0;entryDy=0;endArrow=none;endFill=0;" edge="1" parent="1" source="vO-cMuVsGAkO7_aJOG2B-61" target="vO-cMuVsGAkO7_aJOG2B-111">
          <mxGeometry relative="1" as="geometry" />
        </mxCell>
        <mxCell id="vO-cMuVsGAkO7_aJOG2B-182" style="edgeStyle=orthogonalEdgeStyle;rounded=0;orthogonalLoop=1;jettySize=auto;html=1;exitX=0;exitY=0.5;exitDx=0;exitDy=0;entryX=0;entryY=0.5;entryDx=0;entryDy=0;endArrow=none;endFill=0;" edge="1" parent="1" source="vO-cMuVsGAkO7_aJOG2B-61" target="vO-cMuVsGAkO7_aJOG2B-110">
          <mxGeometry relative="1" as="geometry" />
        </mxCell>
        <mxCell id="vO-cMuVsGAkO7_aJOG2B-183" style="edgeStyle=orthogonalEdgeStyle;rounded=0;orthogonalLoop=1;jettySize=auto;html=1;exitX=0;exitY=0.5;exitDx=0;exitDy=0;entryX=0;entryY=0.5;entryDx=0;entryDy=0;endArrow=none;endFill=0;" edge="1" parent="1" source="vO-cMuVsGAkO7_aJOG2B-61" target="vO-cMuVsGAkO7_aJOG2B-108">
          <mxGeometry relative="1" as="geometry" />
        </mxCell>
        <mxCell id="vO-cMuVsGAkO7_aJOG2B-184" style="edgeStyle=orthogonalEdgeStyle;rounded=0;orthogonalLoop=1;jettySize=auto;html=1;exitX=0;exitY=0.5;exitDx=0;exitDy=0;entryX=0;entryY=0.5;entryDx=0;entryDy=0;endArrow=none;endFill=0;" edge="1" parent="1" source="vO-cMuVsGAkO7_aJOG2B-61" target="vO-cMuVsGAkO7_aJOG2B-106">
          <mxGeometry relative="1" as="geometry" />
        </mxCell>
        <mxCell id="vO-cMuVsGAkO7_aJOG2B-61" value="Accommodation" style="rounded=0;whiteSpace=wrap;html=1;fillColor=#dae8fc;strokeColor=#6c8ebf;" vertex="1" parent="1">
          <mxGeometry x="520" y="600" width="80" height="40" as="geometry" />
        </mxCell>
        <mxCell id="vO-cMuVsGAkO7_aJOG2B-62" value="Accommodation&lt;div&gt;Provider&lt;/div&gt;" style="rounded=0;whiteSpace=wrap;html=1;fillColor=#dae8fc;strokeColor=#6c8ebf;" vertex="1" parent="1">
          <mxGeometry x="760" y="600" width="80" height="40" as="geometry" />
        </mxCell>
        <mxCell id="vO-cMuVsGAkO7_aJOG2B-124" style="edgeStyle=orthogonalEdgeStyle;rounded=0;orthogonalLoop=1;jettySize=auto;html=1;exitX=1;exitY=0.5;exitDx=0;exitDy=0;entryX=0;entryY=0.5;entryDx=0;entryDy=0;endArrow=none;endFill=0;" edge="1" parent="1" source="vO-cMuVsGAkO7_aJOG2B-63" target="vO-cMuVsGAkO7_aJOG2B-103">
          <mxGeometry relative="1" as="geometry" />
        </mxCell>
        <mxCell id="vO-cMuVsGAkO7_aJOG2B-125" style="edgeStyle=orthogonalEdgeStyle;rounded=0;orthogonalLoop=1;jettySize=auto;html=1;exitX=1;exitY=0.5;exitDx=0;exitDy=0;entryX=0;entryY=0.5;entryDx=0;entryDy=0;endArrow=none;endFill=0;" edge="1" parent="1" source="vO-cMuVsGAkO7_aJOG2B-63" target="vO-cMuVsGAkO7_aJOG2B-104">
          <mxGeometry relative="1" as="geometry">
            <Array as="points">
              <mxPoint x="850" y="700" />
              <mxPoint x="850" y="740" />
            </Array>
          </mxGeometry>
        </mxCell>
        <mxCell id="vO-cMuVsGAkO7_aJOG2B-126" style="edgeStyle=orthogonalEdgeStyle;rounded=0;orthogonalLoop=1;jettySize=auto;html=1;exitX=0;exitY=0.5;exitDx=0;exitDy=0;entryX=1;entryY=0.5;entryDx=0;entryDy=0;endArrow=none;endFill=0;" edge="1" parent="1" source="vO-cMuVsGAkO7_aJOG2B-63" target="vO-cMuVsGAkO7_aJOG2B-121">
          <mxGeometry relative="1" as="geometry" />
        </mxCell>
        <mxCell id="vO-cMuVsGAkO7_aJOG2B-63" value="Amenity" style="rounded=0;whiteSpace=wrap;html=1;fillColor=#dae8fc;strokeColor=#6c8ebf;" vertex="1" parent="1">
          <mxGeometry x="760" y="680" width="80" height="40" as="geometry" />
        </mxCell>
        <mxCell id="vO-cMuVsGAkO7_aJOG2B-71" style="edgeStyle=orthogonalEdgeStyle;rounded=0;orthogonalLoop=1;jettySize=auto;html=1;exitX=1;exitY=0.5;exitDx=0;exitDy=0;entryX=0;entryY=0.5;entryDx=0;entryDy=0;endArrow=none;endFill=0;" edge="1" parent="1" source="vO-cMuVsGAkO7_aJOG2B-64" target="vO-cMuVsGAkO7_aJOG2B-58">
          <mxGeometry relative="1" as="geometry">
            <Array as="points">
              <mxPoint x="220" y="440" />
              <mxPoint x="220" y="460" />
            </Array>
          </mxGeometry>
        </mxCell>
        <mxCell id="vO-cMuVsGAkO7_aJOG2B-64" value="&lt;u&gt;ID&lt;/u&gt;" style="ellipse;whiteSpace=wrap;html=1;fillColor=#e1d5e7;strokeColor=#9673a6;" vertex="1" parent="1">
          <mxGeometry x="150" y="420" width="60" height="40" as="geometry" />
        </mxCell>
        <mxCell id="vO-cMuVsGAkO7_aJOG2B-72" style="edgeStyle=orthogonalEdgeStyle;rounded=0;orthogonalLoop=1;jettySize=auto;html=1;exitX=1;exitY=0.5;exitDx=0;exitDy=0;endArrow=none;endFill=0;" edge="1" parent="1" source="vO-cMuVsGAkO7_aJOG2B-65">
          <mxGeometry relative="1" as="geometry">
            <mxPoint x="230" y="460" as="targetPoint" />
            <Array as="points">
              <mxPoint x="220" y="480" />
              <mxPoint x="220" y="460" />
            </Array>
          </mxGeometry>
        </mxCell>
        <mxCell id="vO-cMuVsGAkO7_aJOG2B-65" value="Status" style="ellipse;whiteSpace=wrap;html=1;fillColor=#e1d5e7;strokeColor=#9673a6;" vertex="1" parent="1">
          <mxGeometry x="150" y="460" width="60" height="40" as="geometry" />
        </mxCell>
        <mxCell id="vO-cMuVsGAkO7_aJOG2B-76" style="edgeStyle=orthogonalEdgeStyle;rounded=0;orthogonalLoop=1;jettySize=auto;html=1;exitX=1;exitY=0.5;exitDx=0;exitDy=0;entryX=0;entryY=0.5;entryDx=0;entryDy=0;endArrow=none;endFill=0;" edge="1" parent="1" source="vO-cMuVsGAkO7_aJOG2B-66" target="vO-cMuVsGAkO7_aJOG2B-59">
          <mxGeometry relative="1" as="geometry" />
        </mxCell>
        <mxCell id="vO-cMuVsGAkO7_aJOG2B-66" value="&lt;u&gt;ID&lt;/u&gt;" style="ellipse;whiteSpace=wrap;html=1;fillColor=#e1d5e7;strokeColor=#9673a6;" vertex="1" parent="1">
          <mxGeometry y="520" width="60" height="40" as="geometry" />
        </mxCell>
        <mxCell id="vO-cMuVsGAkO7_aJOG2B-77" style="edgeStyle=orthogonalEdgeStyle;rounded=0;orthogonalLoop=1;jettySize=auto;html=1;exitX=1;exitY=0.5;exitDx=0;exitDy=0;entryX=0;entryY=0.5;entryDx=0;entryDy=0;endArrow=none;endFill=0;" edge="1" parent="1" source="vO-cMuVsGAkO7_aJOG2B-67" target="vO-cMuVsGAkO7_aJOG2B-59">
          <mxGeometry relative="1" as="geometry" />
        </mxCell>
        <mxCell id="vO-cMuVsGAkO7_aJOG2B-67" value="Date" style="ellipse;whiteSpace=wrap;html=1;fillColor=#e1d5e7;strokeColor=#9673a6;" vertex="1" parent="1">
          <mxGeometry y="560" width="60" height="40" as="geometry" />
        </mxCell>
        <mxCell id="vO-cMuVsGAkO7_aJOG2B-78" style="edgeStyle=orthogonalEdgeStyle;rounded=0;orthogonalLoop=1;jettySize=auto;html=1;exitX=1;exitY=0.5;exitDx=0;exitDy=0;entryX=0;entryY=0.5;entryDx=0;entryDy=0;endArrow=none;endFill=0;" edge="1" parent="1" source="vO-cMuVsGAkO7_aJOG2B-68" target="vO-cMuVsGAkO7_aJOG2B-59">
          <mxGeometry relative="1" as="geometry" />
        </mxCell>
        <mxCell id="vO-cMuVsGAkO7_aJOG2B-68" value="Method" style="ellipse;whiteSpace=wrap;html=1;fillColor=#e1d5e7;strokeColor=#9673a6;" vertex="1" parent="1">
          <mxGeometry y="600" width="60" height="40" as="geometry" />
        </mxCell>
        <mxCell id="vO-cMuVsGAkO7_aJOG2B-79" style="edgeStyle=orthogonalEdgeStyle;rounded=0;orthogonalLoop=1;jettySize=auto;html=1;exitX=1;exitY=0.5;exitDx=0;exitDy=0;entryX=0;entryY=0.5;entryDx=0;entryDy=0;endArrow=none;endFill=0;" edge="1" parent="1" source="vO-cMuVsGAkO7_aJOG2B-69" target="vO-cMuVsGAkO7_aJOG2B-59">
          <mxGeometry relative="1" as="geometry">
            <mxPoint x="100" y="660" as="targetPoint" />
          </mxGeometry>
        </mxCell>
        <mxCell id="vO-cMuVsGAkO7_aJOG2B-69" value="Amount" style="ellipse;whiteSpace=wrap;html=1;fillColor=#e1d5e7;strokeColor=#9673a6;" vertex="1" parent="1">
          <mxGeometry y="640" width="60" height="40" as="geometry" />
        </mxCell>
        <mxCell id="vO-cMuVsGAkO7_aJOG2B-80" style="edgeStyle=orthogonalEdgeStyle;rounded=0;orthogonalLoop=1;jettySize=auto;html=1;exitX=1;exitY=0.5;exitDx=0;exitDy=0;entryX=0;entryY=0.5;entryDx=0;entryDy=0;endArrow=none;endFill=0;" edge="1" parent="1" source="vO-cMuVsGAkO7_aJOG2B-70" target="vO-cMuVsGAkO7_aJOG2B-59">
          <mxGeometry relative="1" as="geometry" />
        </mxCell>
        <mxCell id="vO-cMuVsGAkO7_aJOG2B-70" value="Status" style="ellipse;whiteSpace=wrap;html=1;fillColor=#e1d5e7;strokeColor=#9673a6;" vertex="1" parent="1">
          <mxGeometry y="680" width="60" height="40" as="geometry" />
        </mxCell>
        <mxCell id="vO-cMuVsGAkO7_aJOG2B-95" style="edgeStyle=orthogonalEdgeStyle;rounded=0;orthogonalLoop=1;jettySize=auto;html=1;exitX=0.5;exitY=0;exitDx=0;exitDy=0;entryX=1;entryY=0.5;entryDx=0;entryDy=0;endArrow=none;endFill=0;" edge="1" parent="1" source="vO-cMuVsGAkO7_aJOG2B-75" target="vO-cMuVsGAkO7_aJOG2B-60">
          <mxGeometry relative="1" as="geometry">
            <Array as="points">
              <mxPoint x="660" y="410" />
              <mxPoint x="610" y="410" />
              <mxPoint x="610" y="460" />
            </Array>
          </mxGeometry>
        </mxCell>
        <mxCell id="vO-cMuVsGAkO7_aJOG2B-75" value="&lt;u&gt;ID&lt;/u&gt;" style="ellipse;whiteSpace=wrap;html=1;fillColor=#e1d5e7;strokeColor=#9673a6;" vertex="1" parent="1">
          <mxGeometry x="630" y="420" width="60" height="40" as="geometry" />
        </mxCell>
        <mxCell id="vO-cMuVsGAkO7_aJOG2B-83" style="edgeStyle=orthogonalEdgeStyle;rounded=0;orthogonalLoop=1;jettySize=auto;html=1;exitX=0;exitY=0.5;exitDx=0;exitDy=0;entryX=1;entryY=0.5;entryDx=0;entryDy=0;endArrow=none;endFill=0;" edge="1" parent="1" source="vO-cMuVsGAkO7_aJOG2B-81" target="vO-cMuVsGAkO7_aJOG2B-59">
          <mxGeometry relative="1" as="geometry" />
        </mxCell>
        <mxCell id="vO-cMuVsGAkO7_aJOG2B-81" value="linked to" style="rhombus;whiteSpace=wrap;html=1;fillColor=#ffe6cc;strokeColor=#d79b00;" vertex="1" parent="1">
          <mxGeometry x="230" y="600" width="80" height="40" as="geometry" />
        </mxCell>
        <mxCell id="vO-cMuVsGAkO7_aJOG2B-97" style="edgeStyle=orthogonalEdgeStyle;rounded=0;orthogonalLoop=1;jettySize=auto;html=1;exitX=0.5;exitY=0;exitDx=0;exitDy=0;entryX=1;entryY=0.5;entryDx=0;entryDy=0;endArrow=none;endFill=0;" edge="1" parent="1" source="vO-cMuVsGAkO7_aJOG2B-91" target="vO-cMuVsGAkO7_aJOG2B-60">
          <mxGeometry relative="1" as="geometry">
            <mxPoint x="610" y="510" as="targetPoint" />
            <Array as="points">
              <mxPoint x="780" y="410" />
              <mxPoint x="610" y="410" />
              <mxPoint x="610" y="460" />
            </Array>
          </mxGeometry>
        </mxCell>
        <mxCell id="vO-cMuVsGAkO7_aJOG2B-91" value="Address" style="ellipse;whiteSpace=wrap;html=1;fillColor=#d5e8d4;strokeColor=#82b366;" vertex="1" parent="1">
          <mxGeometry x="750" y="420" width="60" height="40" as="geometry" />
        </mxCell>
        <mxCell id="vO-cMuVsGAkO7_aJOG2B-98" style="edgeStyle=orthogonalEdgeStyle;rounded=0;orthogonalLoop=1;jettySize=auto;html=1;exitX=0.5;exitY=1;exitDx=0;exitDy=0;entryX=1;entryY=0.5;entryDx=0;entryDy=0;endArrow=none;endFill=0;" edge="1" parent="1" source="vO-cMuVsGAkO7_aJOG2B-92" target="vO-cMuVsGAkO7_aJOG2B-60">
          <mxGeometry relative="1" as="geometry">
            <Array as="points">
              <mxPoint x="660" y="510" />
              <mxPoint x="610" y="510" />
              <mxPoint x="610" y="460" />
            </Array>
          </mxGeometry>
        </mxCell>
        <mxCell id="vO-cMuVsGAkO7_aJOG2B-92" value="Type" style="ellipse;whiteSpace=wrap;html=1;fillColor=#e1d5e7;strokeColor=#9673a6;" vertex="1" parent="1">
          <mxGeometry x="630" y="460" width="60" height="40" as="geometry" />
        </mxCell>
        <mxCell id="vO-cMuVsGAkO7_aJOG2B-96" style="edgeStyle=orthogonalEdgeStyle;rounded=0;orthogonalLoop=1;jettySize=auto;html=1;exitX=0.5;exitY=0;exitDx=0;exitDy=0;entryX=1;entryY=0.5;entryDx=0;entryDy=0;endArrow=none;endFill=0;" edge="1" parent="1" source="vO-cMuVsGAkO7_aJOG2B-93" target="vO-cMuVsGAkO7_aJOG2B-60">
          <mxGeometry relative="1" as="geometry">
            <Array as="points">
              <mxPoint x="720" y="410" />
              <mxPoint x="610" y="410" />
              <mxPoint x="610" y="460" />
            </Array>
          </mxGeometry>
        </mxCell>
        <mxCell id="vO-cMuVsGAkO7_aJOG2B-93" value="Duration" style="ellipse;whiteSpace=wrap;html=1;fillColor=#e1d5e7;strokeColor=#9673a6;" vertex="1" parent="1">
          <mxGeometry x="690" y="420" width="60" height="40" as="geometry" />
        </mxCell>
        <mxCell id="vO-cMuVsGAkO7_aJOG2B-99" style="edgeStyle=orthogonalEdgeStyle;rounded=0;orthogonalLoop=1;jettySize=auto;html=1;exitX=0.5;exitY=1;exitDx=0;exitDy=0;entryX=1;entryY=0.5;entryDx=0;entryDy=0;endArrow=none;endFill=0;" edge="1" parent="1" source="vO-cMuVsGAkO7_aJOG2B-94" target="vO-cMuVsGAkO7_aJOG2B-60">
          <mxGeometry relative="1" as="geometry">
            <Array as="points">
              <mxPoint x="720" y="510" />
              <mxPoint x="610" y="510" />
              <mxPoint x="610" y="460" />
            </Array>
          </mxGeometry>
        </mxCell>
        <mxCell id="vO-cMuVsGAkO7_aJOG2B-94" value="Price" style="ellipse;whiteSpace=wrap;html=1;fillColor=#e1d5e7;strokeColor=#9673a6;" vertex="1" parent="1">
          <mxGeometry x="690" y="460" width="60" height="40" as="geometry" />
        </mxCell>
        <mxCell id="vO-cMuVsGAkO7_aJOG2B-129" style="edgeStyle=orthogonalEdgeStyle;rounded=0;orthogonalLoop=1;jettySize=auto;html=1;exitX=0;exitY=0.5;exitDx=0;exitDy=0;entryX=1;entryY=0.5;entryDx=0;entryDy=0;endArrow=none;endFill=0;" edge="1" parent="1" source="vO-cMuVsGAkO7_aJOG2B-100" target="vO-cMuVsGAkO7_aJOG2B-62">
          <mxGeometry relative="1" as="geometry">
            <Array as="points">
              <mxPoint x="850" y="560" />
              <mxPoint x="850" y="620" />
            </Array>
          </mxGeometry>
        </mxCell>
        <mxCell id="vO-cMuVsGAkO7_aJOG2B-100" value="&lt;u&gt;ID&lt;/u&gt;" style="ellipse;whiteSpace=wrap;html=1;fillColor=#e1d5e7;strokeColor=#9673a6;" vertex="1" parent="1">
          <mxGeometry x="860" y="540" width="60" height="40" as="geometry" />
        </mxCell>
        <mxCell id="vO-cMuVsGAkO7_aJOG2B-130" style="edgeStyle=orthogonalEdgeStyle;rounded=0;orthogonalLoop=1;jettySize=auto;html=1;exitX=0;exitY=0.5;exitDx=0;exitDy=0;entryX=1;entryY=0.5;entryDx=0;entryDy=0;endArrow=none;endFill=0;" edge="1" parent="1" source="vO-cMuVsGAkO7_aJOG2B-101" target="vO-cMuVsGAkO7_aJOG2B-62">
          <mxGeometry relative="1" as="geometry">
            <Array as="points">
              <mxPoint x="850" y="600" />
              <mxPoint x="850" y="620" />
            </Array>
          </mxGeometry>
        </mxCell>
        <mxCell id="vO-cMuVsGAkO7_aJOG2B-101" value="Name" style="ellipse;whiteSpace=wrap;html=1;fillColor=#e1d5e7;strokeColor=#9673a6;" vertex="1" parent="1">
          <mxGeometry x="860" y="580" width="60" height="40" as="geometry" />
        </mxCell>
        <mxCell id="vO-cMuVsGAkO7_aJOG2B-131" style="edgeStyle=orthogonalEdgeStyle;rounded=0;orthogonalLoop=1;jettySize=auto;html=1;exitX=0;exitY=0.5;exitDx=0;exitDy=0;entryX=1;entryY=0.5;entryDx=0;entryDy=0;endArrow=none;endFill=0;" edge="1" parent="1" source="vO-cMuVsGAkO7_aJOG2B-102" target="vO-cMuVsGAkO7_aJOG2B-62">
          <mxGeometry relative="1" as="geometry">
            <Array as="points">
              <mxPoint x="850" y="640" />
              <mxPoint x="850" y="620" />
            </Array>
          </mxGeometry>
        </mxCell>
        <mxCell id="vO-cMuVsGAkO7_aJOG2B-102" value="Address" style="ellipse;whiteSpace=wrap;html=1;fillColor=#d5e8d4;strokeColor=#82b366;" vertex="1" parent="1">
          <mxGeometry x="860" y="620" width="60" height="40" as="geometry" />
        </mxCell>
        <mxCell id="vO-cMuVsGAkO7_aJOG2B-103" value="&lt;u&gt;ID&lt;/u&gt;" style="ellipse;whiteSpace=wrap;html=1;fillColor=#e1d5e7;strokeColor=#9673a6;" vertex="1" parent="1">
          <mxGeometry x="860" y="680" width="60" height="40" as="geometry" />
        </mxCell>
        <mxCell id="vO-cMuVsGAkO7_aJOG2B-104" value="Name" style="ellipse;whiteSpace=wrap;html=1;fillColor=#e1d5e7;strokeColor=#9673a6;" vertex="1" parent="1">
          <mxGeometry x="860" y="720" width="60" height="40" as="geometry" />
        </mxCell>
        <mxCell id="vO-cMuVsGAkO7_aJOG2B-106" value="&lt;u&gt;ID&lt;/u&gt;" style="ellipse;whiteSpace=wrap;html=1;fillColor=#e1d5e7;strokeColor=#9673a6;" vertex="1" parent="1">
          <mxGeometry x="380" y="660" width="60" height="40" as="geometry" />
        </mxCell>
        <mxCell id="vO-cMuVsGAkO7_aJOG2B-107" value="Room type" style="ellipse;whiteSpace=wrap;html=1;fillColor=#e1d5e7;strokeColor=#9673a6;" vertex="1" parent="1">
          <mxGeometry x="450" y="660" width="60" height="40" as="geometry" />
        </mxCell>
        <mxCell id="vO-cMuVsGAkO7_aJOG2B-108" value="Checkin date" style="ellipse;whiteSpace=wrap;html=1;fillColor=#e1d5e7;strokeColor=#9673a6;" vertex="1" parent="1">
          <mxGeometry x="380" y="700" width="60" height="40" as="geometry" />
        </mxCell>
        <mxCell id="vO-cMuVsGAkO7_aJOG2B-109" value="Checkout&lt;div&gt;&lt;span style=&quot;background-color: initial;&quot;&gt;date&lt;/span&gt;&lt;/div&gt;" style="ellipse;whiteSpace=wrap;html=1;fillColor=#e1d5e7;strokeColor=#9673a6;" vertex="1" parent="1">
          <mxGeometry x="450" y="700" width="60" height="40" as="geometry" />
        </mxCell>
        <mxCell id="vO-cMuVsGAkO7_aJOG2B-110" value="Price" style="ellipse;whiteSpace=wrap;html=1;fillColor=#e1d5e7;strokeColor=#9673a6;" vertex="1" parent="1">
          <mxGeometry x="380" y="740" width="60" height="40" as="geometry" />
        </mxCell>
        <mxCell id="vO-cMuVsGAkO7_aJOG2B-111" value="Status" style="ellipse;whiteSpace=wrap;html=1;fillColor=#e1d5e7;strokeColor=#9673a6;" vertex="1" parent="1">
          <mxGeometry x="450" y="740" width="60" height="40" as="geometry" />
        </mxCell>
        <mxCell id="vO-cMuVsGAkO7_aJOG2B-123" style="edgeStyle=orthogonalEdgeStyle;rounded=0;orthogonalLoop=1;jettySize=auto;html=1;exitX=1;exitY=0.5;exitDx=0;exitDy=0;entryX=0;entryY=0.5;entryDx=0;entryDy=0;endArrow=none;endFill=0;" edge="1" parent="1" source="vO-cMuVsGAkO7_aJOG2B-120" target="vO-cMuVsGAkO7_aJOG2B-62">
          <mxGeometry relative="1" as="geometry" />
        </mxCell>
        <mxCell id="vO-cMuVsGAkO7_aJOG2B-120" value="provided by" style="rhombus;whiteSpace=wrap;html=1;fillColor=#ffe6cc;strokeColor=#d79b00;" vertex="1" parent="1">
          <mxGeometry x="640" y="600" width="80" height="40" as="geometry" />
        </mxCell>
        <mxCell id="vO-cMuVsGAkO7_aJOG2B-127" style="edgeStyle=orthogonalEdgeStyle;rounded=0;orthogonalLoop=1;jettySize=auto;html=1;exitX=0;exitY=0.5;exitDx=0;exitDy=0;entryX=1;entryY=0.5;entryDx=0;entryDy=0;endArrow=none;endFill=0;" edge="1" parent="1" source="vO-cMuVsGAkO7_aJOG2B-121" target="vO-cMuVsGAkO7_aJOG2B-61">
          <mxGeometry relative="1" as="geometry" />
        </mxCell>
        <mxCell id="vO-cMuVsGAkO7_aJOG2B-121" value="offers" style="rhombus;whiteSpace=wrap;html=1;fillColor=#ffe6cc;strokeColor=#d79b00;" vertex="1" parent="1">
          <mxGeometry x="640" y="680" width="80" height="40" as="geometry" />
        </mxCell>
        <mxCell id="vO-cMuVsGAkO7_aJOG2B-132" value="Address" style="ellipse;whiteSpace=wrap;html=1;fillColor=#d5e8d4;strokeColor=#82b366;" vertex="1" parent="1">
          <mxGeometry x="1070" y="140" width="60" height="40" as="geometry" />
        </mxCell>
        <mxCell id="vO-cMuVsGAkO7_aJOG2B-141" style="edgeStyle=orthogonalEdgeStyle;rounded=0;orthogonalLoop=1;jettySize=auto;html=1;exitX=0;exitY=0.5;exitDx=0;exitDy=0;entryX=1;entryY=0.5;entryDx=0;entryDy=0;endArrow=none;endFill=0;" edge="1" parent="1" source="vO-cMuVsGAkO7_aJOG2B-133" target="vO-cMuVsGAkO7_aJOG2B-132">
          <mxGeometry relative="1" as="geometry">
            <Array as="points">
              <mxPoint x="1150" y="100" />
              <mxPoint x="1150" y="160" />
            </Array>
          </mxGeometry>
        </mxCell>
        <mxCell id="vO-cMuVsGAkO7_aJOG2B-133" value="Country" style="ellipse;whiteSpace=wrap;html=1;fillColor=#e1d5e7;strokeColor=#9673a6;" vertex="1" parent="1">
          <mxGeometry x="1160" y="80" width="60" height="40" as="geometry" />
        </mxCell>
        <mxCell id="vO-cMuVsGAkO7_aJOG2B-142" style="edgeStyle=orthogonalEdgeStyle;rounded=0;orthogonalLoop=1;jettySize=auto;html=1;exitX=0;exitY=0.5;exitDx=0;exitDy=0;entryX=1;entryY=0.5;entryDx=0;entryDy=0;endArrow=none;endFill=0;" edge="1" parent="1" source="vO-cMuVsGAkO7_aJOG2B-134" target="vO-cMuVsGAkO7_aJOG2B-132">
          <mxGeometry relative="1" as="geometry">
            <Array as="points">
              <mxPoint x="1150" y="140" />
              <mxPoint x="1150" y="160" />
            </Array>
          </mxGeometry>
        </mxCell>
        <mxCell id="vO-cMuVsGAkO7_aJOG2B-134" value="County" style="ellipse;whiteSpace=wrap;html=1;fillColor=#e1d5e7;strokeColor=#9673a6;" vertex="1" parent="1">
          <mxGeometry x="1160" y="120" width="60" height="40" as="geometry" />
        </mxCell>
        <mxCell id="vO-cMuVsGAkO7_aJOG2B-143" style="edgeStyle=orthogonalEdgeStyle;rounded=0;orthogonalLoop=1;jettySize=auto;html=1;exitX=0;exitY=0.5;exitDx=0;exitDy=0;entryX=1;entryY=0.5;entryDx=0;entryDy=0;endArrow=none;endFill=0;" edge="1" parent="1" source="vO-cMuVsGAkO7_aJOG2B-135" target="vO-cMuVsGAkO7_aJOG2B-132">
          <mxGeometry relative="1" as="geometry">
            <Array as="points">
              <mxPoint x="1150" y="180" />
              <mxPoint x="1150" y="160" />
            </Array>
          </mxGeometry>
        </mxCell>
        <mxCell id="vO-cMuVsGAkO7_aJOG2B-135" value="Town" style="ellipse;whiteSpace=wrap;html=1;fillColor=#e1d5e7;strokeColor=#9673a6;" vertex="1" parent="1">
          <mxGeometry x="1160" y="160" width="60" height="40" as="geometry" />
        </mxCell>
        <mxCell id="vO-cMuVsGAkO7_aJOG2B-144" style="edgeStyle=orthogonalEdgeStyle;rounded=0;orthogonalLoop=1;jettySize=auto;html=1;exitX=0;exitY=0.5;exitDx=0;exitDy=0;entryX=1;entryY=0.5;entryDx=0;entryDy=0;endArrow=none;endFill=0;" edge="1" parent="1" source="vO-cMuVsGAkO7_aJOG2B-136" target="vO-cMuVsGAkO7_aJOG2B-132">
          <mxGeometry relative="1" as="geometry">
            <mxPoint x="1120" y="200" as="targetPoint" />
            <Array as="points">
              <mxPoint x="1150" y="220" />
              <mxPoint x="1150" y="160" />
            </Array>
          </mxGeometry>
        </mxCell>
        <mxCell id="vO-cMuVsGAkO7_aJOG2B-136" value="Street" style="ellipse;whiteSpace=wrap;html=1;fillColor=#e1d5e7;strokeColor=#9673a6;" vertex="1" parent="1">
          <mxGeometry x="1160" y="200" width="60" height="40" as="geometry" />
        </mxCell>
        <mxCell id="vO-cMuVsGAkO7_aJOG2B-145" style="edgeStyle=orthogonalEdgeStyle;rounded=0;orthogonalLoop=1;jettySize=auto;html=1;exitX=0;exitY=0.5;exitDx=0;exitDy=0;entryX=1;entryY=0.5;entryDx=0;entryDy=0;endArrow=none;endFill=0;" edge="1" parent="1" source="vO-cMuVsGAkO7_aJOG2B-137" target="vO-cMuVsGAkO7_aJOG2B-132">
          <mxGeometry relative="1" as="geometry">
            <Array as="points">
              <mxPoint x="1150" y="260" />
              <mxPoint x="1150" y="160" />
            </Array>
          </mxGeometry>
        </mxCell>
        <mxCell id="vO-cMuVsGAkO7_aJOG2B-137" value="Number" style="ellipse;whiteSpace=wrap;html=1;fillColor=#e1d5e7;strokeColor=#9673a6;" vertex="1" parent="1">
          <mxGeometry x="1160" y="240" width="60" height="40" as="geometry" />
        </mxCell>
        <mxCell id="vO-cMuVsGAkO7_aJOG2B-139" style="edgeStyle=orthogonalEdgeStyle;rounded=0;orthogonalLoop=1;jettySize=auto;html=1;exitX=0;exitY=0.5;exitDx=0;exitDy=0;entryX=1;entryY=0.5;entryDx=0;entryDy=0;endArrow=none;endFill=0;" edge="1" parent="1" source="vO-cMuVsGAkO7_aJOG2B-138" target="vO-cMuVsGAkO7_aJOG2B-132">
          <mxGeometry relative="1" as="geometry">
            <Array as="points">
              <mxPoint x="1150" y="60" />
              <mxPoint x="1150" y="160" />
            </Array>
          </mxGeometry>
        </mxCell>
        <mxCell id="vO-cMuVsGAkO7_aJOG2B-138" value="&lt;u&gt;ID&lt;/u&gt;" style="ellipse;whiteSpace=wrap;html=1;fillColor=#e1d5e7;strokeColor=#9673a6;" vertex="1" parent="1">
          <mxGeometry x="1160" y="40" width="60" height="40" as="geometry" />
        </mxCell>
        <mxCell id="vO-cMuVsGAkO7_aJOG2B-148" style="edgeStyle=orthogonalEdgeStyle;rounded=0;orthogonalLoop=1;jettySize=auto;html=1;exitX=1;exitY=0.5;exitDx=0;exitDy=0;entryX=0;entryY=0.5;entryDx=0;entryDy=0;endArrow=none;endFill=0;dashed=1;" edge="1" parent="1" source="vO-cMuVsGAkO7_aJOG2B-146" target="vO-cMuVsGAkO7_aJOG2B-60">
          <mxGeometry relative="1" as="geometry" />
        </mxCell>
        <mxCell id="vO-cMuVsGAkO7_aJOG2B-146" value="linked to" style="rhombus;whiteSpace=wrap;html=1;fillColor=#ffe6cc;strokeColor=#d79b00;" vertex="1" parent="1">
          <mxGeometry x="360" y="440" width="80" height="40" as="geometry" />
        </mxCell>
        <mxCell id="vO-cMuVsGAkO7_aJOG2B-174" style="edgeStyle=orthogonalEdgeStyle;rounded=0;orthogonalLoop=1;jettySize=auto;html=1;exitX=0.5;exitY=0;exitDx=0;exitDy=0;entryX=0.5;entryY=1;entryDx=0;entryDy=0;endArrow=none;endFill=0;fillColor=#f8cecc;strokeColor=#b85450;" edge="1" parent="1" source="vO-cMuVsGAkO7_aJOG2B-155" target="vO-cMuVsGAkO7_aJOG2B-38">
          <mxGeometry relative="1" as="geometry" />
        </mxCell>
        <mxCell id="vO-cMuVsGAkO7_aJOG2B-175" style="edgeStyle=orthogonalEdgeStyle;rounded=0;orthogonalLoop=1;jettySize=auto;html=1;exitX=0.5;exitY=1;exitDx=0;exitDy=0;entryX=0.25;entryY=0;entryDx=0;entryDy=0;endArrow=none;endFill=0;fillColor=#f8cecc;strokeColor=#b85450;" edge="1" parent="1" source="vO-cMuVsGAkO7_aJOG2B-155" target="vO-cMuVsGAkO7_aJOG2B-60">
          <mxGeometry relative="1" as="geometry">
            <Array as="points">
              <mxPoint x="390" y="370" />
              <mxPoint x="540" y="370" />
            </Array>
          </mxGeometry>
        </mxCell>
        <mxCell id="vO-cMuVsGAkO7_aJOG2B-177" style="edgeStyle=orthogonalEdgeStyle;rounded=0;orthogonalLoop=1;jettySize=auto;html=1;exitX=1;exitY=0.5;exitDx=0;exitDy=0;entryX=0;entryY=1;entryDx=0;entryDy=0;fillColor=#f8cecc;strokeColor=#b85450;endArrow=none;endFill=0;" edge="1" parent="1" source="vO-cMuVsGAkO7_aJOG2B-155" target="vO-cMuVsGAkO7_aJOG2B-3">
          <mxGeometry relative="1" as="geometry">
            <Array as="points">
              <mxPoint x="430" y="270" />
              <mxPoint x="580" y="270" />
              <mxPoint x="580" y="140" />
            </Array>
          </mxGeometry>
        </mxCell>
        <mxCell id="vO-cMuVsGAkO7_aJOG2B-178" style="edgeStyle=orthogonalEdgeStyle;rounded=0;orthogonalLoop=1;jettySize=auto;html=1;exitX=0.5;exitY=1;exitDx=0;exitDy=0;entryX=0.25;entryY=0;entryDx=0;entryDy=0;endArrow=none;endFill=0;fillColor=#f8cecc;strokeColor=#b85450;" edge="1" parent="1" source="vO-cMuVsGAkO7_aJOG2B-155" target="vO-cMuVsGAkO7_aJOG2B-61">
          <mxGeometry relative="1" as="geometry">
            <Array as="points">
              <mxPoint x="390" y="370" />
              <mxPoint x="510" y="370" />
              <mxPoint x="510" y="580" />
              <mxPoint x="540" y="580" />
            </Array>
          </mxGeometry>
        </mxCell>
        <mxCell id="vO-cMuVsGAkO7_aJOG2B-155" value="rated with" style="rhombus;whiteSpace=wrap;html=1;fillColor=#ffe6cc;strokeColor=#d79b00;" vertex="1" parent="1">
          <mxGeometry x="350" y="290" width="80" height="40" as="geometry" />
        </mxCell>
        <mxCell id="vO-cMuVsGAkO7_aJOG2B-163" style="edgeStyle=orthogonalEdgeStyle;rounded=0;orthogonalLoop=1;jettySize=auto;html=1;exitX=1;exitY=0.5;exitDx=0;exitDy=0;entryX=0.25;entryY=1;entryDx=0;entryDy=0;endArrow=none;endFill=0;dashed=1;" edge="1" parent="1" source="vO-cMuVsGAkO7_aJOG2B-158" target="vO-cMuVsGAkO7_aJOG2B-3">
          <mxGeometry relative="1" as="geometry">
            <Array as="points">
              <mxPoint x="440" y="290" />
              <mxPoint x="590" y="290" />
            </Array>
          </mxGeometry>
        </mxCell>
        <mxCell id="vO-cMuVsGAkO7_aJOG2B-158" value="linked to" style="rhombus;whiteSpace=wrap;html=1;fillColor=#ffe6cc;strokeColor=#d79b00;" vertex="1" parent="1">
          <mxGeometry x="360" y="390" width="80" height="40" as="geometry" />
        </mxCell>
        <mxCell id="vO-cMuVsGAkO7_aJOG2B-167" style="edgeStyle=orthogonalEdgeStyle;rounded=0;orthogonalLoop=1;jettySize=auto;html=1;exitX=1;exitY=0.5;exitDx=0;exitDy=0;entryX=0.25;entryY=0;entryDx=0;entryDy=0;endArrow=none;endFill=0;dashed=1;" edge="1" parent="1" source="vO-cMuVsGAkO7_aJOG2B-164" target="vO-cMuVsGAkO7_aJOG2B-61">
          <mxGeometry relative="1" as="geometry" />
        </mxCell>
        <mxCell id="vO-cMuVsGAkO7_aJOG2B-164" value="linked to" style="rhombus;whiteSpace=wrap;html=1;fillColor=#ffe6cc;strokeColor=#d79b00;" vertex="1" parent="1">
          <mxGeometry x="360" y="490" width="80" height="40" as="geometry" />
        </mxCell>
        <mxCell id="vO-cMuVsGAkO7_aJOG2B-171" style="edgeStyle=orthogonalEdgeStyle;rounded=0;orthogonalLoop=1;jettySize=auto;html=1;exitX=0.5;exitY=1;exitDx=0;exitDy=0;entryX=0.75;entryY=0;entryDx=0;entryDy=0;endArrow=none;endFill=0;" edge="1" parent="1" source="vO-cMuVsGAkO7_aJOG2B-168" target="vO-cMuVsGAkO7_aJOG2B-61">
          <mxGeometry relative="1" as="geometry">
            <Array as="points">
              <mxPoint x="590" y="590" />
              <mxPoint x="580" y="590" />
            </Array>
          </mxGeometry>
        </mxCell>
        <mxCell id="vO-cMuVsGAkO7_aJOG2B-168" value="includes" style="rhombus;whiteSpace=wrap;html=1;fillColor=#ffe6cc;strokeColor=#d79b00;" vertex="1" parent="1">
          <mxGeometry x="550" y="530" width="80" height="40" as="geometry" />
        </mxCell>
        <mxCell id="vO-cMuVsGAkO7_aJOG2B-185" value="" style="shape=partialRectangle;whiteSpace=wrap;html=1;bottom=1;right=1;left=1;top=0;fillColor=none;routingCenterX=-0.5;" vertex="1" parent="1">
          <mxGeometry x="360" y="520" width="80" height="20" as="geometry" />
        </mxCell>
        <mxCell id="vO-cMuVsGAkO7_aJOG2B-186" value="At least one of those&lt;div&gt;is true&lt;/div&gt;" style="text;html=1;align=center;verticalAlign=middle;resizable=0;points=[];autosize=1;strokeColor=none;fillColor=none;" vertex="1" parent="1">
          <mxGeometry x="335" y="543" width="130" height="40" as="geometry" />
        </mxCell>
        <mxCell id="vO-cMuVsGAkO7_aJOG2B-187" value="Generic format for&lt;div&gt;an address :&lt;/div&gt;" style="text;html=1;align=center;verticalAlign=middle;resizable=0;points=[];autosize=1;strokeColor=none;fillColor=none;" vertex="1" parent="1">
          <mxGeometry x="970" y="110" width="120" height="40" as="geometry" />
        </mxCell>
        <mxCell id="vO-cMuVsGAkO7_aJOG2B-188" value="m" style="text;html=1;align=center;verticalAlign=middle;resizable=0;points=[];autosize=1;strokeColor=none;fillColor=none;" vertex="1" parent="1">
          <mxGeometry x="210" y="55" width="30" height="30" as="geometry" />
        </mxCell>
        <mxCell id="vO-cMuVsGAkO7_aJOG2B-189" value="n" style="text;html=1;align=center;verticalAlign=middle;resizable=0;points=[];autosize=1;strokeColor=none;fillColor=none;" vertex="1" parent="1">
          <mxGeometry x="300" y="55" width="30" height="30" as="geometry" />
        </mxCell>
        <mxCell id="vO-cMuVsGAkO7_aJOG2B-190" value="1" style="text;html=1;align=center;verticalAlign=middle;resizable=0;points=[];autosize=1;strokeColor=none;fillColor=none;" vertex="1" parent="1">
          <mxGeometry x="210" y="175" width="30" height="30" as="geometry" />
        </mxCell>
        <mxCell id="vO-cMuVsGAkO7_aJOG2B-191" value="n" style="text;html=1;align=center;verticalAlign=middle;resizable=0;points=[];autosize=1;strokeColor=none;fillColor=none;" vertex="1" parent="1">
          <mxGeometry x="305" y="178" width="30" height="30" as="geometry" />
        </mxCell>
        <mxCell id="vO-cMuVsGAkO7_aJOG2B-204" value="1" style="text;html=1;align=center;verticalAlign=middle;resizable=0;points=[];autosize=1;strokeColor=none;fillColor=none;" vertex="1" parent="1">
          <mxGeometry x="545" y="98" width="30" height="30" as="geometry" />
        </mxCell>
        <mxCell id="vO-cMuVsGAkO7_aJOG2B-205" value="1" style="text;html=1;align=center;verticalAlign=middle;resizable=0;points=[];autosize=1;strokeColor=none;fillColor=none;" vertex="1" parent="1">
          <mxGeometry x="450" y="98" width="30" height="30" as="geometry" />
        </mxCell>
        <mxCell id="vO-cMuVsGAkO7_aJOG2B-206" value="1" style="text;html=1;align=center;verticalAlign=middle;resizable=0;points=[];autosize=1;strokeColor=none;fillColor=none;" vertex="1" parent="1">
          <mxGeometry x="690" y="280" width="30" height="30" as="geometry" />
        </mxCell>
        <mxCell id="vO-cMuVsGAkO7_aJOG2B-207" value="n" style="text;html=1;align=center;verticalAlign=middle;resizable=0;points=[];autosize=1;strokeColor=none;fillColor=none;" vertex="1" parent="1">
          <mxGeometry x="650" y="260" width="30" height="30" as="geometry" />
        </mxCell>
        <mxCell id="vO-cMuVsGAkO7_aJOG2B-209" value="1" style="text;html=1;align=center;verticalAlign=middle;resizable=0;points=[];autosize=1;strokeColor=none;fillColor=none;" vertex="1" parent="1">
          <mxGeometry x="210" y="285" width="30" height="30" as="geometry" />
        </mxCell>
        <mxCell id="vO-cMuVsGAkO7_aJOG2B-210" value="n" style="text;html=1;align=center;verticalAlign=middle;resizable=0;points=[];autosize=1;strokeColor=none;fillColor=none;" vertex="1" parent="1">
          <mxGeometry x="270" y="320" width="30" height="30" as="geometry" />
        </mxCell>
        <mxCell id="vO-cMuVsGAkO7_aJOG2B-211" value="1" style="text;html=1;align=center;verticalAlign=middle;resizable=0;points=[];autosize=1;strokeColor=none;fillColor=none;" vertex="1" parent="1">
          <mxGeometry x="210" y="600" width="30" height="30" as="geometry" />
        </mxCell>
        <mxCell id="vO-cMuVsGAkO7_aJOG2B-212" value="1" style="text;html=1;align=center;verticalAlign=middle;resizable=0;points=[];autosize=1;strokeColor=none;fillColor=none;" vertex="1" parent="1">
          <mxGeometry x="270" y="580" width="30" height="30" as="geometry" />
        </mxCell>
        <mxCell id="vO-cMuVsGAkO7_aJOG2B-213" value="m" style="text;html=1;align=center;verticalAlign=middle;resizable=0;points=[];autosize=1;strokeColor=none;fillColor=none;" vertex="1" parent="1">
          <mxGeometry x="620" y="680" width="30" height="30" as="geometry" />
        </mxCell>
        <mxCell id="vO-cMuVsGAkO7_aJOG2B-214" value="n" style="text;html=1;align=center;verticalAlign=middle;resizable=0;points=[];autosize=1;strokeColor=none;fillColor=none;" vertex="1" parent="1">
          <mxGeometry x="710" y="680" width="30" height="30" as="geometry" />
        </mxCell>
        <mxCell id="vO-cMuVsGAkO7_aJOG2B-215" value="n" style="text;html=1;align=center;verticalAlign=middle;resizable=0;points=[];autosize=1;strokeColor=none;fillColor=none;" vertex="1" parent="1">
          <mxGeometry x="620" y="600" width="30" height="30" as="geometry" />
        </mxCell>
        <mxCell id="vO-cMuVsGAkO7_aJOG2B-216" value="1" style="text;html=1;align=center;verticalAlign=middle;resizable=0;points=[];autosize=1;strokeColor=none;fillColor=none;" vertex="1" parent="1">
          <mxGeometry x="705" y="600" width="30" height="30" as="geometry" />
        </mxCell>
        <mxCell id="vO-cMuVsGAkO7_aJOG2B-217" value="1" style="text;html=1;align=center;verticalAlign=middle;resizable=0;points=[];autosize=1;strokeColor=none;fillColor=none;" vertex="1" parent="1">
          <mxGeometry x="370" y="270" width="30" height="30" as="geometry" />
        </mxCell>
        <mxCell id="vO-cMuVsGAkO7_aJOG2B-218" value="1" style="text;html=1;align=center;verticalAlign=middle;resizable=0;points=[];autosize=1;strokeColor=none;fillColor=none;" vertex="1" parent="1">
          <mxGeometry x="370" y="325" width="30" height="30" as="geometry" />
        </mxCell>
        <mxCell id="vO-cMuVsGAkO7_aJOG2B-219" value="1" style="text;html=1;align=center;verticalAlign=middle;resizable=0;points=[];autosize=1;strokeColor=none;fillColor=none;" vertex="1" parent="1">
          <mxGeometry x="380" y="335" width="30" height="30" as="geometry" />
        </mxCell>
        <mxCell id="vO-cMuVsGAkO7_aJOG2B-220" value="1" style="text;html=1;align=center;verticalAlign=middle;resizable=0;points=[];autosize=1;strokeColor=none;fillColor=none;" vertex="1" parent="1">
          <mxGeometry x="410" y="285" width="30" height="30" as="geometry" />
        </mxCell>
        <mxCell id="vO-cMuVsGAkO7_aJOG2B-221" value="1" style="text;html=1;align=center;verticalAlign=middle;resizable=0;points=[];autosize=1;strokeColor=none;fillColor=none;" vertex="1" parent="1">
          <mxGeometry x="340" y="380" width="30" height="30" as="geometry" />
        </mxCell>
        <mxCell id="vO-cMuVsGAkO7_aJOG2B-222" value="1" style="text;html=1;align=center;verticalAlign=middle;resizable=0;points=[];autosize=1;strokeColor=none;fillColor=none;" vertex="1" parent="1">
          <mxGeometry x="430" y="380" width="30" height="30" as="geometry" />
        </mxCell>
        <mxCell id="vO-cMuVsGAkO7_aJOG2B-223" value="1" style="text;html=1;align=center;verticalAlign=middle;resizable=0;points=[];autosize=1;strokeColor=none;fillColor=none;" vertex="1" parent="1">
          <mxGeometry x="340" y="440" width="30" height="30" as="geometry" />
        </mxCell>
        <mxCell id="vO-cMuVsGAkO7_aJOG2B-224" value="1" style="text;html=1;align=center;verticalAlign=middle;resizable=0;points=[];autosize=1;strokeColor=none;fillColor=none;" vertex="1" parent="1">
          <mxGeometry x="430" y="440" width="30" height="30" as="geometry" />
        </mxCell>
        <mxCell id="vO-cMuVsGAkO7_aJOG2B-225" value="1" style="text;html=1;align=center;verticalAlign=middle;resizable=0;points=[];autosize=1;strokeColor=none;fillColor=none;" vertex="1" parent="1">
          <mxGeometry x="430" y="490" width="30" height="30" as="geometry" />
        </mxCell>
        <mxCell id="vO-cMuVsGAkO7_aJOG2B-227" value="1" style="text;html=1;align=center;verticalAlign=middle;resizable=0;points=[];autosize=1;strokeColor=none;fillColor=none;" vertex="1" parent="1">
          <mxGeometry x="335" y="490" width="30" height="30" as="geometry" />
        </mxCell>
        <mxCell id="vO-cMuVsGAkO7_aJOG2B-228" value="1" style="text;html=1;align=center;verticalAlign=middle;resizable=0;points=[];autosize=1;strokeColor=none;fillColor=none;" vertex="1" parent="1">
          <mxGeometry x="590" y="510" width="30" height="30" as="geometry" />
        </mxCell>
        <mxCell id="vO-cMuVsGAkO7_aJOG2B-229" value="n" style="text;html=1;align=center;verticalAlign=middle;resizable=0;points=[];autosize=1;strokeColor=none;fillColor=none;" vertex="1" parent="1">
          <mxGeometry x="590" y="560" width="30" height="30" as="geometry" />
        </mxCell>
        <mxCell id="vO-cMuVsGAkO7_aJOG2B-230" value="1" style="text;html=1;align=center;verticalAlign=middle;resizable=0;points=[];autosize=1;strokeColor=none;fillColor=none;" vertex="1" parent="1">
          <mxGeometry x="560" y="360" width="30" height="30" as="geometry" />
        </mxCell>
        <mxCell id="vO-cMuVsGAkO7_aJOG2B-231" value="n" style="text;html=1;align=center;verticalAlign=middle;resizable=0;points=[];autosize=1;strokeColor=none;fillColor=none;" vertex="1" parent="1">
          <mxGeometry x="560" y="310" width="30" height="30" as="geometry" />
        </mxCell>
      </root>
    </mxGraphModel>
  </diagram>
</mxfile>
